<svg xmlns="http://www.w3.org/2000/svg" viewBox="0 0 100 100" width="100" height="100">
  <defs>
    <linearGradient id="gradient" x1="0%" y1="0%" x2="100%" y2="100%">
      <stop offset="0%" style="stop-color:#4F46E5;stop-opacity:1" />
      <stop offset="100%" style="stop-color:#7C3AED;stop-opacity:1" />
    </linearGradient>
  </defs>
  
  <!-- Background circle -->
  <circle cx="50" cy="50" r="45" fill="url(#gradient)" stroke="#ffffff" stroke-width="2"/>
  
  <!-- Neural network nodes -->
  <circle cx="25" cy="30" r="4" fill="#ffffff" opacity="0.9"/>
  <circle cx="25" cy="50" r="4" fill="#ffffff" opacity="0.9"/>
  <circle cx="25" cy="70" r="4" fill="#ffffff" opacity="0.9"/>
  
  <circle cx="50" cy="25" r="4" fill="#ffffff" opacity="0.9"/>
  <circle cx="50" cy="50" r="5" fill="#ffffff"/>
  <circle cx="50" cy="75" r="4" fill="#ffffff" opacity="0.9"/>
  
  <circle cx="75" cy="35" r="4" fill="#ffffff" opacity="0.9"/>
  <circle cx="75" cy="65" r="4" fill="#ffffff" opacity="0.9"/>
  
  <!-- Connections -->
  <line x1="25" y1="30" x2="50" y2="25" stroke="#ffffff" stroke-width="1.5" opacity="0.7"/>
  <line x1="25" y1="30" x2="50" y2="50" stroke="#ffffff" stroke-width="1.5" opacity="0.7"/>
  <line x1="25" y1="50" x2="50" y2="25" stroke="#ffffff" stroke-width="1.5" opacity="0.7"/>
  <line x1="25" y1="50" x2="50" y2="50" stroke="#ffffff" stroke-width="2"/>
  <line x1="25" y1="50" x2="50" y2="75" stroke="#ffffff" stroke-width="1.5" opacity="0.7"/>
  <line x1="25" y1="70" x2="50" y2="50" stroke="#ffffff" stroke-width="1.5" opacity="0.7"/>
  <line x1="25" y1="70" x2="50" y2="75" stroke="#ffffff" stroke-width="1.5" opacity="0.7"/>
  
  <line x1="50" y1="25" x2="75" y2="35" stroke="#ffffff" stroke-width="1.5" opacity="0.7"/>
  <line x1="50" y1="50" x2="75" y2="35" stroke="#ffffff" stroke-width="2" opacity="0.8"/>
  <line x1="50" y1="50" x2="75" y2="65" stroke="#ffffff" stroke-width="2" opacity="0.8"/>
  <line x1="50" y1="75" x2="75" y2="65" stroke="#ffffff" stroke-width="1.5" opacity="0.7"/>
  
  <!-- NEURA text -->
  <text x="50" y="88" font-family="Arial, sans-serif" font-size="8" font-weight="bold" text-anchor="middle" fill="#ffffff">NEURA</text>
</svg>
